Coordinates
version=1
nRows=4
nColumns=107
inDegrees=yes

Units are S.I. units (second, meters, Newtons, ...)
If the header above contains a line with 'inDegrees', this indicates whether rotational values are in degrees (yes) or radians (no).

endheader
time	sternoclavicular_r2	sternoclavicular_r3	unrotscap_r3	unrotscap_r2	acromioclavicular_r2	acromioclavicular_r3	acromioclavicular_r1	unrothum_r1	unrothum_r3	unrothum_r2	elv_angle	shoulder_elv	shoulder1_r2	shoulder_rot	elbow_flexion	pro_sup	deviation	flexion	proximal_distal_r1	proximal_distal_r3	cmc_flexion	cmc_abduction	mp_flexion	ip_flexion	mcp2_flexion	mcp2_abduction	pm2_flexion	md2_flexion	mcp3_flexion	mcp3_abduction	pm3_flexion	md3_flexion	mcp4_flexion	mcp4_abduction	pm4_flexion	md4_flexion	mcp5_flexion	mcp5_abduction	pm5_flexion	md5_flexion	bicpt_tx	bicpt_ty	bicpt_tz	bicpt2_tx	bicpt2_ty	bicpt2_tz	ptpt_tx	ptpt_ty	ptpt_tz	FCUpt_tx	FCUpt_ty	FCUpt_tz	EDCpt_tx	EDCpt_ty	EDCpt_tz	APLpt_tx	APLpt_ty	APLpt_tz	FPLpt_tx	FPLpt_ty	FPLpt_tz	FPLpt2_tx	FPLpt2_ty	FPLpt2_tz	PEC1pt2_tx	PEC1pt2_ty	PEC1pt2_tz	PEC1pt3_tx	PEC1pt3_ty	PEC1pt3_tz	PEC2pt2_tx	PEC2pt2_ty	PEC2pt2_tz	PEC2pt3_tx	PEC2pt3_ty	PEC2pt3_tz	PEC3pt2_tx	PEC3pt2_ty	PEC3pt2_tz	PEC3pt3_tx	PEC3pt3_ty	PEC3pt3_tz	DELT2pt2a_tx	DELT2pt2a_ty	DELT2pt2a_tz	DELT2pt2_tx	DELT2pt2_ty	DELT2pt2_tz	LAT1pt2_tx	LAT1pt2_ty	LAT1pt2_tz	LAT1pt3_tx	LAT1pt3_ty	LAT1pt3_tz	LAT2pt2_tx	LAT2pt2_ty	LAT2pt2_tz	LAT2pt3_tx	LAT2pt3_ty	LAT2pt3_tz	LAT3pt2_tx	LAT3pt2_ty	LAT3pt2_tz	LAT3pt3_tx	LAT3pt3_ty	LAT3pt3_tz
      1.63333333	     -0.30358127	      0.12858270	     -0.12858270	      0.30358127	     -0.06146903	      0.49677109	      0.22329519	     -0.22329519	     -0.49677109	      0.06146903	    106.34720433	     71.87556386	     -1.85610887	    -54.86685473	     30.70662426	     66.50439091	      0.30269847	     -0.18553023	      0.33580763	     -0.09276512	     20.70385097	     -6.43237989	    -12.68166075	      7.06076240	     -2.57928532	     10.45113000	     25.07672928	      5.36451403	     -0.21940508	      2.27644999	     19.29879488	     19.27218796	      4.81771833	     -4.73003544	      4.17442374	     21.64156604	      7.26981788	    -13.74020772	     15.41921254	      5.25031901	      0.00091568	     -0.03111945	     -0.00486689	      0.01582037	     -0.01854161	     -0.00414817	      0.00263608	     -0.06807742	     -0.00540729	      0.01055707	     -0.18284397	     -0.00031006	     -0.00798051	      0.00256682	     -0.00023422	      0.00016100	      0.00006440	      0.00032199	      0.00020608	      0.00061823	      0.00034775	      0.00001010	     -0.00027947	     -0.00033536	      0.00235592	      0.00826570	      0.00575005	     -0.00770666	      0.01860780	     -0.01764946	      0.00235592	      0.00826570	      0.00575005	      0.00051910	      0.01725015	     -0.00906431	      0.00378211	      0.00459645	      0.01554815	      0.00000000	      0.00690389	      0.00000000	     -0.00674832	     -0.03118603	     -0.00568719	      0.02576603	     -0.00166565	     -0.02243365	     -0.00083855	      0.01405568	     -0.00575005	      0.00231599	      0.02028490	     -0.01677098	     -0.00563026	      0.01217893	     -0.00515109	     -0.01173969	      0.02571550	     -0.02879018	     -0.02204186	      0.01361644	     -0.00690805	     -0.01461471	      0.02970859	     -0.03597774
      1.66666667	     -0.30645607	      0.12980033	     -0.12980033	      0.30645607	     -0.06205112	      0.50147533	      0.22540971	     -0.22540971	     -0.50147533	      0.06205112	    104.50213103	     72.55619912	     -1.82390626	    -47.71528519	     30.14195430	     58.45204928	      0.33200128	     -0.19617463	      0.36035267	     -0.09808731	     19.23322113	     -5.35424018	    -12.33891604	      7.45375011	     -1.40769811	      9.81415457	     24.34871680	      1.40913768	     -0.08962677	      1.65060240	     17.80542928	     17.55247783	      5.18602125	     -5.28123050	      0.56770598	     21.07312935	      6.22688676	    -13.81979652	     13.20175126	      5.29915037	      0.00089700	     -0.03105473	     -0.00485647	      0.01621942	     -0.01838821	     -0.00526156	      0.00323105	     -0.06769270	     -0.00475863	      0.00969051	     -0.18306288	     -0.00038921	     -0.00701423	      0.00218339	     -0.00007831	      0.00016849	      0.00006739	      0.00033697	      0.00021566	      0.00064699	      0.00036393	      0.00001371	     -0.00027532	     -0.00033039	      0.00237823	      0.00834397	      0.00580450	     -0.00777964	      0.01878401	     -0.01781659	      0.00237823	      0.00834397	      0.00580450	      0.00052402	      0.01741350	     -0.00915015	      0.00380886	      0.00463998	      0.01561771	      0.00000000	      0.00703602	      0.00000000	     -0.00681223	     -0.03148136	     -0.00579701	      0.02463236	     -0.00139629	     -0.01769545	     -0.00084649	      0.01418878	     -0.00580450	      0.00233792	      0.02047699	     -0.01692979	     -0.00568357	      0.01229426	     -0.00519987	     -0.01185086	      0.02595902	     -0.02906281	     -0.02225059	      0.01374538	     -0.00697346	     -0.01475311	      0.02998992	     -0.03631844
      1.70000000	     -0.30374960	      0.12865399	     -0.12865399	      0.30374960	     -0.06150311	      0.49704654	      0.22341900	     -0.22341900	     -0.49704654	      0.06150311	    106.26055123	     71.91541675	     -1.85459648	    -54.49530375	     30.67420619	     65.84169652	      0.30381600	     -0.19412797	      0.33676952	     -0.09706398	     20.44447605	     -6.77999996	    -12.58081212	      7.83859625	     -3.69326194	      9.89206852	     26.30663300	     -1.27353030	     -1.10350783	      1.69273836	     17.47168164	     17.36359550	      5.22145459	     -5.10286565	     -0.47318561	     21.41345970	      7.03282117	    -13.69904717	     12.75949462	      5.26928786	      0.00091461	     -0.03111573	     -0.00486629	      0.01585881	     -0.01853280	     -0.00424323	      0.00268504	     -0.06804576	     -0.00535390	      0.01048500	     -0.18286268	     -0.00031841	     -0.00790099	      0.00253451	     -0.00022006	      0.00016706	      0.00006682	      0.00033412	      0.00021384	      0.00064152	      0.00036085	      0.00001073	     -0.00027892	     -0.00033470	      0.00235723	      0.00827028	      0.00575324	     -0.00771094	      0.01861812	     -0.01765925	      0.00235723	      0.00827028	      0.00575324	      0.00051939	      0.01725971	     -0.00906934	      0.00378368	      0.00459900	      0.01555226	      0.00000000	      0.00691159	      0.00000000	     -0.00675206	     -0.03120333	     -0.00569359	      0.02572398	     -0.00165161	     -0.02218242	     -0.00083901	      0.01406347	     -0.00575324	      0.00231728	      0.02029615	     -0.01678028	     -0.00563338	      0.01218568	     -0.00515394	     -0.01174619	      0.02572976	     -0.02880614	     -0.02205408	      0.01362399	     -0.00691188	     -0.01462281	      0.02972506	     -0.03599769
      1.73333333	     -0.30715131	      0.13009480	     -0.13009480	      0.30715131	     -0.06219189	      0.50261300	      0.22592108	     -0.22592108	     -0.50261300	      0.06219189	    104.18999937	     72.72080264	     -1.81845854	    -46.35758407	     29.97924797	     56.58919092	      0.33192458	     -0.21964740	      0.36029026	     -0.10982370	     18.98568209	     -5.78121872	    -12.29714525	      7.14900959	     -2.20560012	      9.28309386	     25.15119440	     -2.65681814	     -0.60378663	      1.26282928	     16.27443121	     16.61492001	      5.16142755	     -5.58316073	     -1.73293476	     21.36711681	      5.69340535	    -13.79772524	     12.30492489	      5.27642798	      0.00089162	     -0.03103608	     -0.00485346	      0.01629061	     -0.01834401	     -0.00550618	      0.00336870	     -0.06760370	     -0.00460856	      0.00949288	     -0.18311090	     -0.00040056	     -0.00679069	      0.00209754	     -0.00004725	      0.00018437	      0.00007375	      0.00036874	      0.00023600	      0.00070799	      0.00039824	      0.00001432	     -0.00027443	     -0.00032931	      0.00238363	      0.00836290	      0.00581767	     -0.00779729	      0.01882662	     -0.01785701	      0.00238363	      0.00836290	      0.00581767	      0.00052521	      0.01745301	     -0.00917091	      0.00381531	      0.00465050	      0.01563436	      0.00000000	      0.00706817	      0.00000000	     -0.00682768	     -0.03155277	     -0.00582373	      0.02433995	     -0.00134553	     -0.01682483	     -0.00084841	      0.01422097	     -0.00581767	      0.00234323	      0.02052344	     -0.01696820	     -0.00569647	      0.01232215	     -0.00521166	     -0.01187774	      0.02601791	     -0.02912875	     -0.02230106	      0.01377656	     -0.00698928	     -0.01478658	      0.03005796	     -0.03640083
